<svg width="600" height="400" viewBox="0 0 600 400" fill="none" xmlns="http://www.w3.org/2000/svg">
  <!-- Fundo -->
  <rect width="600" height="400" fill="#0f172a"/>
  
  <!-- Header -->
  <rect width="600" height="60" fill="#1e293b"/>
  <rect x="20" y="20" width="120" height="20" fill="#3b82f6" rx="4"/>
  <text x="30" y="32" fill="white" font-size="12" font-family="Arial">Seusite Dashboard</text>
  
  <!-- Sidebar -->
  <rect x="0" y="60" width="150" height="340" fill="#1e293b"/>
  <rect x="10" y="80" width="130" height="30" fill="#3b82f6" rx="4"/>
  <text x="20" y="98" fill="white" font-size="11" font-family="Arial">Dashboard</text>
  
  <rect x="10" y="120" width="130" height="25" fill="#334155" rx="4"/>
  <text x="20" y="135" fill="white" font-size="10" font-family="Arial">Imóveis</text>
  
  <rect x="10" y="155" width="130" height="25" fill="#334155" rx="4"/>
  <text x="20" y="170" fill="white" font-size="10" font-family="Arial">Leads</text>
  
  <rect x="10" y="190" width="130" height="25" fill="#334155" rx="4"/>
  <text x="20" y="205" fill="white" font-size="10" font-family="Arial">Blog</text>
  
  <rect x="10" y="225" width="130" height="25" fill="#334155" rx="4"/>
  <text x="20" y="240" fill="white" font-size="10" font-family="Arial">Configurações</text>
  
  <!-- Main Content -->
  <rect x="150" y="60" width="450" height="340" fill="#0f172a"/>
  
  <!-- Stats Cards -->
  <rect x="170" y="80" width="100" height="60" fill="#1e293b" rx="8"/>
  <text x="180" y="100" fill="white" font-size="10" font-family="Arial">Total Imóveis</text>
  <text x="180" y="120" fill="#3b82f6" font-size="18" font-family="Arial" font-weight="bold">24</text>
  
  <rect x="290" y="80" width="100" height="60" fill="#1e293b" rx="8"/>
  <text x="300" y="100" fill="white" font-size="10" font-family="Arial">Novos Leads</text>
  <text x="300" y="120" fill="#10b981" font-size="18" font-family="Arial" font-weight="bold">8</text>
  
  <rect x="410" y="80" width="100" height="60" fill="#1e293b" rx="8"/>
  <text x="420" y="100" fill="white" font-size="10" font-family="Arial">Visualizações</text>
  <text x="420" y="120" fill="#f59e0b" font-size="18" font-family="Arial" font-weight="bold">1.2k</text>
  
  <!-- Property List -->
  <rect x="170" y="160" width="340" height="200" fill="#1e293b" rx="8"/>
  <text x="180" y="180" fill="white" font-size="12" font-family="Arial" font-weight="bold">Meus Imóveis</text>
  
  <!-- Property Item 1 -->
  <rect x="180" y="190" width="320" height="40" fill="#334155" rx="4"/>
  <rect x="190" y="195" width="30" height="30" fill="#3b82f6" rx="2"/>
  <text x="230" y="210" fill="white" font-size="10" font-family="Arial">Apartamento 3 quartos - Copacabana</text>
  <text x="230" y="220" fill="#94a3b8" font-size="9" font-family="Arial">R$ 850.000</text>
  <rect x="470" y="200" width="20" height="20" fill="#10b981" rx="2"/>
  
  <!-- Property Item 2 -->
  <rect x="180" y="240" width="320" height="40" fill="#334155" rx="4"/>
  <rect x="190" y="245" width="30" height="30" fill="#3b82f6" rx="2"/>
  <text x="230" y="260" fill="white" font-size="10" font-family="Arial">Casa 4 quartos - Barra da Tijuca</text>
  <text x="230" y="270" fill="#94a3b8" font-size="9" font-family="Arial">R$ 1.200.000</text>
  <rect x="470" y="250" width="20" height="20" fill="#10b981" rx="2"/>
  
  <!-- Property Item 3 -->
  <rect x="180" y="290" width="320" height="40" fill="#334155" rx="4"/>
  <rect x="190" y="295" width="30" height="30" fill="#3b82f6" rx="2"/>
  <text x="230" y="310" fill="white" font-size="10" font-family="Arial">Cobertura 2 quartos - Ipanema</text>
  <text x="230" y="320" fill="#94a3b8" font-size="9" font-family="Arial">R$ 2.500.000</text>
  <rect x="470" y="300" width="20" height="20" fill="#f59e0b" rx="2"/>
  
  <!-- AI Button -->
  <rect x="520" y="190" width="80" height="30" fill="#8b5cf6" rx="4"/>
  <text x="540" y="208" fill="white" font-size="9" font-family="Arial">Gerar com IA</text>
</svg>
