<svg width="400" height="300" viewBox="0 0 400 300" fill="none" xmlns="http://www.w3.org/2000/svg">
  <!-- Fundo -->
  <rect width="400" height="300" fill="#1a1a1a"/>
  
  <!-- Céu -->
  <rect width="400" height="120" fill="#0f172a"/>
  
  <!-- Prédio principal -->
  <rect x="50" y="80" width="300" height="220" fill="#334155"/>
  
  <!-- Janelas -->
  <rect x="70" y="100" width="40" height="50" fill="#3b82f6" opacity="0.8"/>
  <rect x="130" y="100" width="40" height="50" fill="#3b82f6" opacity="0.8"/>
  <rect x="190" y="100" width="40" height="50" fill="#3b82f6" opacity="0.8"/>
  <rect x="250" y="100" width="40" height="50" fill="#3b82f6" opacity="0.8"/>
  <rect x="310" y="100" width="40" height="50" fill="#3b82f6" opacity="0.8"/>
  
  <rect x="70" y="170" width="40" height="50" fill="#3b82f6" opacity="0.8"/>
  <rect x="130" y="170" width="40" height="50" fill="#3b82f6" opacity="0.8"/>
  <rect x="190" y="170" width="40" height="50" fill="#3b82f6" opacity="0.8"/>
  <rect x="250" y="170" width="40" height="50" fill="#3b82f6" opacity="0.8"/>
  <rect x="310" y="170" width="40" height="50" fill="#3b82f6" opacity="0.8"/>
  
  <rect x="70" y="240" width="40" height="50" fill="#3b82f6" opacity="0.8"/>
  <rect x="130" y="240" width="40" height="50" fill="#3b82f6" opacity="0.8"/>
  <rect x="190" y="240" width="40" height="50" fill="#3b82f6" opacity="0.8"/>
  <rect x="250" y="240" width="40" height="50" fill="#3b82f6" opacity="0.8"/>
  <rect x="310" y="240" width="40" height="50" fill="#3b82f6" opacity="0.8"/>
  
  <!-- Porta de entrada -->
  <rect x="180" y="250" width="40" height="50" fill="#dc2626"/>
  
  <!-- Árvores -->
  <circle cx="30" cy="200" r="15" fill="#16a34a"/>
  <rect x="27" y="200" width="6" height="20" fill="#a3a3a3"/>
  
  <circle cx="370" cy="180" r="12" fill="#16a34a"/>
  <rect x="368" y="180" width="4" height="15" fill="#a3a3a3"/>
  
  <!-- Estrelas -->
  <circle cx="80" cy="40" r="2" fill="#fbbf24"/>
  <circle cx="120" cy="30" r="1.5" fill="#fbbf24"/>
  <circle cx="200" cy="50" r="2" fill="#fbbf24"/>
  <circle cx="280" cy="35" r="1.5" fill="#fbbf24"/>
  <circle cx="320" cy="45" r="2" fill="#fbbf24"/>
</svg>

