<svg width="400" height="300" viewBox="0 0 400 300" fill="none" xmlns="http://www.w3.org/2000/svg">
  <!-- Fundo -->
  <rect width="400" height="300" fill="#1a1a1a"/>
  
  <!-- Céu -->
  <rect width="400" height="120" fill="#0f172a"/>
  
  <!-- Casa principal -->
  <rect x="100" y="120" width="200" height="180" fill="#dc2626"/>
  
  <!-- Telhado -->
  <polygon points="80,120 200,60 320,120" fill="#7c2d12"/>
  
  <!-- Porta -->
  <rect x="180" y="220" width="40" height="80" fill="#92400e"/>
  <circle cx="210" cy="260" r="3" fill="#fbbf24"/>
  
  <!-- Janelas -->
  <rect x="120" y="150" width="30" height="40" fill="#3b82f6" opacity="0.8"/>
  <rect x="250" y="150" width="30" height="40" fill="#3b82f6" opacity="0.8"/>
  
  <rect x="120" y="200" width="30" height="40" fill="#3b82f6" opacity="0.8"/>
  <rect x="250" y="200" width="30" height="40" fill="#3b82f6" opacity="0.8"/>
  
  <!-- Chaminé -->
  <rect x="280" y="80" width="20" height="40" fill="#374151"/>
  
  <!-- Garagem -->
  <rect x="50" y="200" width="60" height="100" fill="#6b7280"/>
  <rect x="55" y="205" width="50" height="90" fill="#1f2937"/>
  
  <!-- Jardim -->
  <circle cx="60" cy="250" r="20" fill="#16a34a"/>
  <circle cx="340" cy="220" r="25" fill="#16a34a"/>
  <circle cx="350" cy="280" r="15" fill="#16a34a"/>
  
  <!-- Cerca -->
  <rect x="20" y="180" width="5" height="120" fill="#a3a3a3"/>
  <rect x="375" y="180" width="5" height="120" fill="#a3a3a3"/>
  <rect x="20" y="180" width="360" height="3" fill="#a3a3a3"/>
  
  <!-- Estrelas -->
  <circle cx="50" cy="40" r="2" fill="#fbbf24"/>
  <circle cx="100" cy="30" r="1.5" fill="#fbbf24"/>
  <circle cx="150" cy="50" r="2" fill="#fbbf24"/>
  <circle cx="250" cy="35" r="1.5" fill="#fbbf24"/>
  <circle cx="300" cy="45" r="2" fill="#fbbf24"/>
  <circle cx="350" cy="40" r="1.5" fill="#fbbf24"/>
</svg>
