<svg width="400" height="300" viewBox="0 0 400 300" fill="none" xmlns="http://www.w3.org/2000/svg">
  <!-- Fundo -->
  <rect width="400" height="300" fill="#1a1a1a"/>
  
  <!-- Céu -->
  <rect width="400" height="120" fill="#0f172a"/>
  
  <!-- Mansão -->
  <rect x="80" y="100" width="240" height="200" fill="#1e40af"/>
  
  <!-- Telhado principal -->
  <polygon points="60,100 200,40 340,100" fill="#7c2d12"/>
  
  <!-- Torres laterais -->
  <rect x="60" y="80" width="40" height="220" fill="#1e40af"/>
  <rect x="300" y="80" width="40" height="220" fill="#1e40af"/>
  
  <!-- Telhados das torres -->
  <polygon points="50,80 80,50 110,80" fill="#7c2d12"/>
  <polygon points="290,80 320,50 350,80" fill="#7c2d12"/>
  
  <!-- Porta principal -->
  <rect x="180" y="200" width="40" height="100" fill="#92400e"/>
  <circle cx="210" cy="250" r="3" fill="#fbbf24"/>
  
  <!-- Janelas -->
  <rect x="100" y="130" width="25" height="35" fill="#3b82f6" opacity="0.8"/>
  <rect x="140" y="130" width="25" height="35" fill="#3b82f6" opacity="0.8"/>
  <rect x="235" y="130" width="25" height="35" fill="#3b82f6" opacity="0.8"/>
  <rect x="275" y="130" width="25" height="35" fill="#3b82f6" opacity="0.8"/>
  
  <rect x="100" y="180" width="25" height="35" fill="#3b82f6" opacity="0.8"/>
  <rect x="140" y="180" width="25" height="35" fill="#3b82f6" opacity="0.8"/>
  <rect x="235" y="180" width="25" height="35" fill="#3b82f6" opacity="0.8"/>
  <rect x="275" y="180" width="25" height="35" fill="#3b82f6" opacity="0.8"/>
  
  <!-- Janelas das torres -->
  <rect x="70" y="120" width="20" height="30" fill="#3b82f6" opacity="0.8"/>
  <rect x="310" y="120" width="20" height="30" fill="#3b82f6" opacity="0.8"/>
  
  <!-- Piscina -->
  <ellipse cx="320" cy="250" rx="40" ry="20" fill="#0ea5e9" opacity="0.7"/>
  
  <!-- Jardim -->
  <circle cx="50" cy="220" r="30" fill="#16a34a"/>
  <circle cx="350" cy="200" r="25" fill="#16a34a"/>
  <circle cx="30" cy="280" r="20" fill="#16a34a"/>
  
  <!-- Estrelas -->
  <circle cx="40" cy="30" r="2" fill="#fbbf24"/>
  <circle cx="80" cy="20" r="1.5" fill="#fbbf24"/>
  <circle cx="120" cy="40" r="2" fill="#fbbf24"/>
  <circle cx="200" cy="25" r="1.5" fill="#fbbf24"/>
  <circle cx="280" cy="35" r="2" fill="#fbbf24"/>
  <circle cx="320" cy="30" r="1.5" fill="#fbbf24"/>
  <circle cx="360" cy="40" r="2" fill="#fbbf24"/>
</svg>
